<svg xmlns="http://www.w3.org/2000/svg" width="1100" height="360" viewBox="0 0 1100 360" role="img" aria-label="Systems thinking and problem solving workflow"><defs><linearGradient id="g" x1="0" y1="0" x2="1" y2="1"><stop offset="0" stop-color="#7ee787"/><stop offset=".55" stop-color="#58a6ff"/><stop offset="1" stop-color="#d2a8ff"/></linearGradient></defs><rect width="1100" height="360" rx="18" fill="#0d1117"/><rect x=".5" y=".5" width="1099" height="359" rx="17.5" fill="none" stroke="#30363d"/><g font-family="ui-sans-serif,-apple-system,Segoe UI,Helvetica,Arial,sans-serif"><text x="32" y="40" font-size="14" font-weight="700" fill="#7ee787">SIGNALS / 01</text><text x="32" y="68" font-size="22" font-weight="800" fill="#f0f6fc">How I read systems</text><text x="594" y="40" font-size="14" font-weight="700" fill="#58a6ff">SIGNALS / 02</text><text x="594" y="68" font-size="22" font-weight="800" fill="#f0f6fc">How I move from noise to action</text><line x1="550" y1="28" x2="550" y2="332" stroke="#21262d"/><g transform="translate(277 205)" font-family="ui-monospace,SFMono-Regular,Menlo,Consolas,monospace"><circle r="79" fill="#10151c" stroke="#30363d"/><circle r="47" fill="#0b1118" stroke="url(#g)" stroke-width="2"/><text x="0" y="-4" text-anchor="middle" font-size="14" font-weight="700" fill="#f0f6fc">SYSTEMS</text><text x="0" y="15" text-anchor="middle" font-size="10" fill="#8b949e">THINKING</text><g fill="#161b22" stroke="#30363d"><rect x="-232" y="-78" width="116" height="38" rx="10"/><rect x="116" y="-78" width="116" height="38" rx="10"/><rect x="-248" y="-3" width="116" height="38" rx="10"/><rect x="132" y="-3" width="116" height="38" rx="10"/><rect x="-202" y="72" width="116" height="38" rx="10"/><rect x="86" y="72" width="116" height="38" rx="10"/></g><g font-size="11" text-anchor="middle" fill="#c9d1d9"><text x="-174" y="-54">ARCHITECTURE</text><text x="174" y="-54">IDENTITY</text><text x="-190" y="21">VISIBILITY</text><text x="190" y="21">AUTOMATION</text><text x="-144" y="96">RISK</text><text x="144" y="96">EVIDENCE</text></g><g stroke="#3d4653"><path d="M-116-59h65M51-59h65M-132 16h84M48 16h84M-86 91h49M37 91h49"/></g></g><g transform="translate(594 104)" font-family="ui-monospace,SFMono-Regular,Menlo,Consolas,monospace"><g><rect x="0" y="0" width="420" height="42" rx="11" fill="#10151c" stroke="#30363d"/><circle cx="22" cy="21" r="7" fill="#7ee787"/><text x="42" y="18" font-size="11" fill="#8b949e">01 / CONTEXT</text><text x="42" y="33" font-size="12" fill="#f0f6fc">Understand what actually exists</text></g><g transform="translate(0 52)"><rect width="420" height="42" rx="11" fill="#10151c" stroke="#30363d"/><circle cx="22" cy="21" r="7" fill="#58a6ff"/><text x="42" y="18" font-size="11" fill="#8b949e">02 / PRIORITIZE</text><text x="42" y="33" font-size="12" fill="#f0f6fc">Find what matters before fixing everything</text></g><g transform="translate(0 104)"><rect width="420" height="42" rx="11" fill="#10151c" stroke="#30363d"/><circle cx="22" cy="21" r="7" fill="#d2a8ff"/><text x="42" y="18" font-size="11" fill="#8b949e">03 / INTERVENE</text><text x="42" y="33" font-size="12" fill="#f0f6fc">Choose the smallest useful change</text></g><g transform="translate(0 156)"><rect width="420" height="42" rx="11" fill="#10151c" stroke="#30363d"/><circle cx="22" cy="21" r="7" fill="#7ee787"/><text x="42" y="18" font-size="11" fill="#8b949e">04 / AUTOMATE</text><text x="42" y="33" font-size="12" fill="#f0f6fc">Remove repetition where it actually helps</text></g><g transform="translate(0 208)"><rect width="420" height="42" rx="11" fill="#10151c" stroke="#30363d"/><circle cx="22" cy="21" r="7" fill="#58a6ff"/><text x="42" y="18" font-size="11" fill="#8b949e">05 / VERIFY</text><text x="42" y="33" font-size="12" fill="#f0f6fc">Evidence beats "it should work"</text></g></g></g></svg>